<svg xmlns="http://www.w3.org/2000/svg" viewBox="0 0 1584 396">
  <!-- Accent lines -->
  <path d="M0,148 C264,98 528,198 792,148 C1056,98 1320,198 1584,148" 
        stroke="#2196F3" stroke-width="2" fill="none"/>
  
  <!-- Tech Logos -->
  <g transform="translate(792, 148) scale(0.8)">
    <!-- AWS -->
    <g transform="translate(-500, 0)">
      <path d="M-40,-40 L40,-40 L40,40 L-40,40 Z" fill="#FF9900" opacity="0.9"/>
      <text x="0" y="60" font-family="Arial, sans-serif" font-size="16" fill="#000000" text-anchor="middle">AWS</text>
    </g>
    
    <!-- JavaScript -->
    <g transform="translate(-300, 0)">
      <rect x="-40" y="-40" width="80" height="80" fill="#F7DF1E" opacity="0.9"/>
      <text x="0" y="60" font-family="Arial, sans-serif" font-size="16" fill="#000000" text-anchor="middle">JavaScript</text>
    </g>
    
    <!-- TypeScript -->
    <g transform="translate(-100, 0)">
      <rect x="-40" y="-40" width="80" height="80" fill="#007ACC" opacity="0.9"/>
      <text x="0" y="60" font-family="Arial, sans-serif" font-size="16" fill="#000000" text-anchor="middle">TypeScript</text>
    </g>
    
    <!-- Architecture -->
    <g transform="translate(100, 0)">
      <g fill="#6C48B0" opacity="0.9">
        <rect x="-40" y="-40" width="80" height="80" fill="none" stroke="#6C48B0" stroke-width="4"/>
        <rect x="-20" y="-20" width="40" height="40"/>
        <line x1="-40" y1="-40" x2="40" y2="40" stroke="#6C48B0" stroke-width="4"/>
        <line x1="-40" y1="40" x2="40" y2="-40" stroke="#6C48B0" stroke-width="4"/>
      </g>
      <text x="0" y="60" font-family="Arial, sans-serif" font-size="16" fill="#000000" text-anchor="middle">Architecture</text>
    </g>
    
    <!-- Node.js -->
    <g transform="translate(300, 0)">
      <rect x="-40" y="-40" width="80" height="80" fill="#339933" opacity="0.9"/>
      <text x="0" y="60" font-family="Arial, sans-serif" font-size="16" fill="#000000" text-anchor="middle">Node.js</text>
    </g>
    
    <!-- React -->
    <g transform="translate(500, 0)">
      <circle cx="0" cy="0" r="40" fill="#61DAFB" opacity="0.9"/>
      <text x="0" y="60" font-family="Arial, sans-serif" font-size="16" fill="#000000" text-anchor="middle">React</text>
    </g>
  </g>
  
  <!-- Main Title - Reduced font size to 35 -->
  <text x="792" y="340" font-family="Arial, sans-serif" font-size="35" fill="#000000" text-anchor="middle" font-weight="bold">
      Building scalable solutions with modern technologies
  </text>
  
  <!-- Decorative connection lines -->
  <g stroke="#2196F3" stroke-width="1" opacity="0.2">
    <line x1="100" y1="100" x2="300" y2="148"/>
    <line x1="1484" y1="296" x2="1284" y2="148"/>
  </g>
  
  <!-- Decorative elements -->
  <g fill="#2196F3" opacity="0.1">
    <circle cx="100" cy="100" r="40"/>
    <circle cx="1484" cy="296" r="40"/>
  </g>
</svg>
