<?xml version="1.0" standalone="no"?>
<!DOCTYPE svg PUBLIC "-//W3C//DTD SVG 20010904//EN"
 "http://www.w3.org/TR/2001/REC-SVG-20010904/DTD/svg10.dtd">
<svg version="1.0" xmlns="http://www.w3.org/2000/svg"
 width="512.000000pt" height="512.000000pt" viewBox="0 0 512.000000 512.000000"
 preserveAspectRatio="xMidYMid meet">

<g transform="translate(0.000000,512.000000) scale(0.100000,-0.100000)"
fill="#000000" stroke="none">
<path d="M2730 3925 c-16 -19 -16 -61 0 -80 11 -13 78 -15 496 -15 l484 0 17
26 c15 24 15 29 2 53 l-15 26 -486 3 c-423 2 -487 0 -498 -13z"/>
<path d="M3898 3929 c-22 -13 -24 -62 -2 -83 12 -13 41 -16 149 -16 145 0 165
7 165 55 0 48 -20 55 -163 55 -73 0 -140 -5 -149 -11z"/>
<path d="M2750 3628 c-31 -16 -39 -68 -15 -92 23 -23 260 -24 293 0 25 17 29
51 8 80 -13 17 -29 19 -138 22 -86 2 -130 -1 -148 -10z"/>
<path d="M3230 3633 c-43 -15 -53 -73 -18 -97 20 -14 83 -16 488 -16 519 0
514 -1 508 63 -5 56 -8 57 -508 56 -250 0 -462 -3 -470 -6z"/>
<path d="M2736 3314 c-19 -18 -21 -65 -4 -82 9 -9 133 -12 494 -12 l483 0 15
22 c21 30 20 44 -4 68 -19 19 -33 20 -494 20 -418 0 -476 -2 -490 -16z"/>
<path d="M3897 3312 c-20 -22 -22 -63 -5 -80 8 -8 57 -12 153 -12 152 0 165 4
165 50 0 52 -23 60 -167 60 -113 0 -132 -2 -146 -18z"/>
<path d="M2730 3005 c-7 -8 -12 -26 -12 -40 0 -50 13 -55 162 -55 120 0 139 2
153 18 22 24 21 55 -1 75 -26 24 -283 25 -302 2z"/>
<path d="M3207 3002 c-22 -24 -21 -55 1 -75 17 -15 66 -17 495 -17 517 0 507
-1 507 55 0 56 10 55 -509 55 -450 0 -479 -1 -494 -18z"/>
<path d="M1369 2922 c-80 -21 -163 -70 -225 -133 l-47 -48 58 -57 c134 -130
356 -234 502 -234 l23 0 0 176 0 175 -56 70 -56 69 -67 -1 c-36 0 -96 -8 -132
-17z"/>
<path d="M1838 2866 l-58 -74 0 -172 0 -173 63 7 c79 9 194 47 277 93 76 41
189 130 219 171 l20 29 -47 46 c-97 95 -226 148 -359 147 l-58 -1 -57 -73z"/>
<path d="M2750 2707 c-31 -16 -39 -61 -14 -88 16 -18 37 -19 491 -19 460 0
474 1 493 20 26 26 25 46 -5 75 l-24 25 -458 0 c-348 0 -464 -3 -483 -13z"/>
<path d="M3910 2707 c-31 -16 -39 -61 -14 -88 15 -17 32 -19 143 -19 147 0
174 10 169 63 -2 22 -11 35 -28 44 -34 17 -236 17 -270 0z"/>
<path d="M2736 2394 c-19 -18 -21 -65 -4 -82 8 -8 57 -12 155 -12 130 0 143 2
153 19 16 31 12 59 -12 75 -33 23 -270 23 -292 0z"/>
<path d="M3212 2394 c-24 -16 -28 -44 -12 -75 10 -18 26 -19 498 -19 366 0
491 3 500 12 18 18 14 63 -6 81 -17 15 -65 17 -488 17 -409 0 -472 -2 -492
-16z"/>
<path d="M1077 2252 c-15 -16 -17 -45 -17 -198 0 -127 4 -184 12 -192 17 -17
1299 -17 1316 0 8 8 12 66 12 194 0 153 -3 185 -16 198 -14 14 -87 16 -653 16
-605 0 -639 -1 -654 -18z"/>
<path d="M2730 2085 c-18 -22 -15 -66 6 -82 15 -11 110 -13 498 -11 l480 3 15
26 c13 24 13 29 -2 53 l-17 26 -484 0 c-418 0 -485 -2 -496 -15z"/>
<path d="M3898 2089 c-22 -13 -24 -62 -2 -83 12 -13 41 -16 149 -16 145 0 165
7 165 55 0 48 -20 55 -163 55 -73 0 -140 -5 -149 -11z"/>
</g>
</svg>
